# xmcd
#
# Track frame offsets:
#	150
#	24820
#	59395
#	82420
#	101985
#	130670
#	133455
#	151120
#	204340
#	240295
#	267160
#	294640
#	321320
#
# Disc length: 4593 seconds
#
# Revision: 1
# Processed by: cddbd v1.5.1PL0 Copyright (c) Steve Scherf et al.
# Submitted via: EasyCDDAExtractor 8.0.2.1
#
DISCID=b911ef0d
DTITLE=Ozzy Osbourne - Rock Am Ring Nurnberg 19-05-02
DYEAR=2002
DGENRE=Hard Rock
TTITLE0=I Don't Know
TTITLE1=War Pigs
TTITLE2=Believer
TTITLE3=That I Never Had
TTITLE4=Mr Crowley
TTITLE5=Band Intros
TTITLE6=Gets Me Through
TTITLE7=Suicide Solution
TTITLE8=Road To Nowhere
TTITLE9=Iron Man
TTITLE10=Crazy Train
TTITLE11=Mama I'm Coming Home
TTITLE12=Paranoid
EXTD=
EXTT0=
EXTT1=
EXTT2=
EXTT3=
EXTT4=
EXTT5=
EXTT6=
EXTT7=
EXTT8=
EXTT9=
EXTT10=
EXTT11=
EXTT12=
PLAYORDER=
